<svg width="23" height="21" viewBox="0 0 23 21" fill="none" xmlns="http://www.w3.org/2000/svg">
<path d="M13.2671 0.494685C13.555 0.495307 13.8377 0.583302 14.0876 0.75001C14.6501 1.12179 14.9999 1.84348 14.9999 2.62695L14.9999 18.4823C14.9999 19.2679 14.6501 19.9874 14.0876 20.3592C13.8318 20.5306 13.5412 20.6188 13.2462 20.6145C12.9512 20.6101 12.6626 20.5135 12.4106 20.3346L0.791024 12.2232C0.548861 12.0462 0.34923 11.8003 0.210851 11.5086C0.0724715 11.2169 -0.00012219 10.889 -0.00012219 10.5557C-0.00012219 10.2224 0.0724715 9.89448 0.210851 9.60282C0.34923 9.31115 0.548861 9.06524 0.791024 8.88816L12.4125 0.774613C12.6704 0.592785 12.9658 0.496033 13.2671 0.494685Z" fill="white"/>
<rect x="17" y="0.494751" width="6" height="20.1199" rx="1" fill="white"/>
</svg>
