<svg width="23" height="21" viewBox="0 0 23 21" fill="none" xmlns="http://www.w3.org/2000/svg">
<rect y="0.494751" width="6" height="20.1199" rx="1" fill="white"/>
<path d="M9.73262 20.6147C9.44478 20.6141 9.16203 20.5261 8.91219 20.3594C8.34961 19.9876 7.99988 19.2659 7.99988 18.4824V2.62711C7.99988 1.84146 8.34961 1.12195 8.91219 0.750173C9.16798 0.578736 9.45856 0.490575 9.75355 0.494903C10.0486 0.499231 10.3371 0.59589 10.5891 0.774776L22.2087 8.88613C22.4509 9.06322 22.6505 9.30912 22.7889 9.60079C22.9273 9.89246 22.9999 10.2203 22.9999 10.5537C22.9999 10.887 22.9273 11.2149 22.7889 11.5066C22.6505 11.7982 22.4509 12.0441 22.2087 12.2212L10.5873 20.3348C10.3294 20.5166 10.034 20.6133 9.73262 20.6147V20.6147Z" fill="white"/>
</svg>
