<svg width="30" height="30" viewBox="0 0 30 30" fill="none" xmlns="http://www.w3.org/2000/svg">
<path d="M8.34784 15.6162C8.39164 15.4932 8.4417 15.3578 8.49802 15.2163C8.73582 14.6379 9.13006 13.9303 9.74332 13.2966C12.6219 11.1246 15.6381 2.95958 15.6381 2.95958C15.6381 2.95958 15.1688 0 16.5768 0C17.9848 0 21.3327 0.922944 19.3239 6.90978C17.3152 12.9028 19.3239 11.9798 19.3239 11.9798C19.787 11.8752 20.2125 11.7891 20.6193 11.7214C20.6193 11.7214 26.4202 10.4416 28.5604 12.3675C30.275 13.9057 28.9421 15.9362 28.9421 15.9362C28.9421 15.9362 31.3513 18.0466 28.8983 20.5694C28.8983 20.5694 30.469 23.1228 27.7093 25.1595C27.7093 25.1595 28.9922 28.6728 23.8671 29.7434C22.3589 30.0572 20.4628 30.0449 18.6731 29.9096C14.1988 30.0018 9.74957 29.4296 9.74957 29.4296L6.87101 17.1175C7.74084 16.6007 8.15385 16.0039 8.34784 15.6162ZM0.00625777 17.2898L0 29.5958H6.80217C7.40918 29.5958 7.80341 29.122 7.67826 28.5374L5.50056 18.3481C5.37541 17.7636 4.78092 17.2898 4.17392 17.2898H0.00625777Z" fill="white"/>
</svg>
