<svg width="100" height="101" viewBox="0 0 100 101" fill="none" xmlns="http://www.w3.org/2000/svg">
<rect x="28" y="30.4348" width="42" height="39.2339" fill="#E95050"/>
<path d="M95.1652 40.2895H88.9611C88.0286 36.8677 86.6215 33.3823 84.8126 30.2798L89.3802 25.708C91.3792 23.7039 91.3795 20.4576 89.3802 18.4532L82.3027 11.3588C81.3426 10.3963 80.0405 9.85634 78.6829 9.85634C77.3252 9.85634 76.0228 10.3973 75.0631 11.3602L70.4501 15.8954C67.2733 14.0069 63.8231 12.5434 60.0688 11.5871V5.38752C60.0688 2.55294 57.9558 0.254883 55.1282 0.254883H45.1189C42.2913 0.254883 39.9319 2.55294 39.9319 5.38752V11.5871C36.5189 12.5055 33.125 13.8896 30.0533 15.6702L25.8253 11.4143C23.8264 9.41014 20.5929 9.41014 18.5939 11.4143L11.5202 18.5103C9.52085 20.5144 9.5229 23.7644 11.5222 25.7689L15.6577 29.8993C13.7403 33.1065 12.2564 36.5255 11.2857 40.2895H5.23312C2.40581 40.2895 0 42.6169 0 45.4515V55.4869C0 58.3214 2.40581 60.4778 5.23312 60.4778H11.2444C12.198 64.2418 13.6656 67.7357 15.5625 70.9429L11.4707 75.0805C9.47136 77.0846 9.47136 80.3524 11.4707 82.3569L18.5482 89.4615C19.5478 90.4637 20.8581 90.9691 22.168 90.9691C23.4779 90.9691 24.7885 90.4702 25.7878 89.468L29.8902 85.3225C33.0073 87.1491 36.1773 88.5688 39.9315 89.5032V95.5509C39.9315 98.3854 42.2909 100.855 45.1182 100.855H55.1275C57.9548 100.855 60.0681 98.3854 60.0681 95.5509V89.5036C63.8224 88.5308 67.391 87.0341 70.6122 85.0984L75.0712 89.5241C76.0709 90.5263 77.4033 91.0276 78.7136 91.0276C80.0238 91.0276 81.3453 90.5263 82.3447 89.5241L89.428 82.4284C91.4273 80.4243 91.4304 77.1743 89.4307 75.1698L84.9071 70.5624C86.6962 67.4606 88.086 64.2421 89.0017 60.4782H95.1648C97.9921 60.4782 100 58.3218 100 55.4872V45.4519C100 42.6169 97.9925 40.2895 95.1652 40.2895ZM65.0228 50.5455C65.0228 58.782 58.3391 65.4828 50.1237 65.4828C41.9083 65.4828 35.2247 58.782 35.2247 50.5455C35.2247 42.309 41.9083 35.6081 50.1237 35.6081C58.3391 35.6081 65.0228 42.3086 65.0228 50.5455Z" fill="#E95050"/>
<path d="M41.4655 65.6447C40.8898 65.6437 40.3243 65.5118 39.8246 65.2617C38.6995 64.704 38 63.6215 38 62.4463V38.6633C38 37.4848 38.6995 36.4056 39.8246 35.8479C40.3362 35.5907 40.9174 35.4585 41.5074 35.465C42.0973 35.4715 42.6745 35.6165 43.1785 35.8848L66.4177 48.0518C66.902 48.3175 67.3013 48.6863 67.5781 49.1238C67.8548 49.5613 68 50.0531 68 50.5532C68 51.0532 67.8548 51.545 67.5781 51.9825C67.3013 52.42 66.902 52.7888 66.4177 53.0545L43.1748 65.2248C42.659 65.4975 42.0682 65.6427 41.4655 65.6447V65.6447Z" fill="white"/>
</svg>
