<svg width="30" height="30" viewBox="0 0 30 30" fill="none" xmlns="http://www.w3.org/2000/svg">
<path d="M11.8932 13.8596C12.0502 14.6755 12.0369 15.515 11.8542 16.3255L19.4144 20.1307C20.3563 19.0148 21.6729 18.2807 23.1174 18.0659C24.5618 17.8512 26.0351 18.1705 27.2609 18.9642C28.4868 19.7578 29.3811 20.9713 29.7762 22.377C30.1713 23.7828 30.0402 25.2844 29.4073 26.6004C28.7744 27.9164 27.6833 28.9564 26.3384 29.5255C24.9935 30.0947 23.4872 30.1538 22.1019 29.6919C20.7165 29.23 19.5471 28.2788 18.813 27.0165C18.0788 25.7542 17.8302 24.2675 18.1139 22.8351L10.4786 18.9923C9.66398 19.9059 8.58937 20.5485 7.39899 20.8338C6.20862 21.1191 4.95945 21.0336 3.81908 20.5887C2.67872 20.1438 1.70173 19.3607 1.01922 18.3446C0.336709 17.3286 -0.0186751 16.1281 0.000756366 14.9042C0.0201878 13.6804 0.413505 12.4918 1.12793 11.4979C1.84236 10.504 2.84371 9.75233 3.99762 9.34382C5.15154 8.93531 6.4028 8.88947 7.58351 9.21246C8.76423 9.53545 9.8179 10.2118 10.6031 11.1508L18.1574 7.36799C17.8243 5.94625 18.0212 4.45185 18.7112 3.1649C19.4012 1.87795 20.5369 0.886788 21.9055 0.377198C23.274 -0.132392 24.7815 -0.12543 26.1452 0.39678C27.509 0.91899 28.6355 1.9206 29.3136 3.21387C29.9917 4.50714 30.1748 6.00329 29.8286 7.42189C29.4824 8.8405 28.6307 10.0842 27.4331 10.9198C26.2355 11.7554 24.7742 12.1257 23.3232 11.9611C21.8721 11.7965 20.5309 11.1084 19.5509 10.0258L11.8932 13.8596Z" fill="white"/>
</svg>
