<svg width="40" height="42" viewBox="0 0 40 42" fill="none" xmlns="http://www.w3.org/2000/svg">
<path d="M1.82927 36.0514H17.1459C19.4929 39.0951 23.1252 41.0517 27.1951 41.0517C34.2557 41.0517 40 35.1635 40 27.926C40 20.6885 34.2557 14.8003 27.1951 14.8003C22.9893 14.8003 19.2506 16.8899 16.9149 20.1094C15.9682 19.9058 15.001 19.8006 14.0244 19.8006C6.29134 19.8006 0 26.2496 0 34.1763C0 35.2119 0.819024 36.0514 1.82927 36.0514ZM27.1951 18.5505C32.2384 18.5505 36.3415 22.7564 36.3415 27.926C36.3415 33.0957 32.2384 37.3015 27.1951 37.3015C22.1518 37.3015 18.0488 33.0957 18.0488 27.926C18.0488 22.7564 22.1518 18.5505 27.1951 18.5505Z" fill="white"/>
<path d="M14.0244 0.362076C9.80463 0.362076 6.37183 3.88101 6.37183 8.20637C6.37183 12.5317 9.80463 16.0504 14.0244 16.0504C18.244 16.0504 21.6768 12.5317 21.6768 8.20637C21.6768 3.88101 18.244 0.362076 14.0244 0.362076Z" fill="white"/>
<path d="M23.5366 29.8011H25.3659V31.6762C25.3659 32.7118 26.1849 33.5513 27.1951 33.5513C28.2054 33.5513 29.0244 32.7118 29.0244 31.6762V29.8011H30.8537C31.8639 29.8011 32.6829 28.9616 32.6829 27.926C32.6829 26.8905 31.8639 26.0509 30.8537 26.0509H29.0244V24.1758C29.0244 23.1403 28.2054 22.3007 27.1951 22.3007C26.1849 22.3007 25.3659 23.1403 25.3659 24.1758V26.0509H23.5366C22.5263 26.0509 21.7073 26.8905 21.7073 27.926C21.7073 28.9616 22.5263 29.8011 23.5366 29.8011Z" fill="#B9B9B9"/>
</svg>
