<svg width="30" height="30" viewBox="0 0 30 30" fill="none" xmlns="http://www.w3.org/2000/svg">
<path d="M21.9795 7.71741C21.9795 3.45569 20.1612 0 14.9997 0C9.98236 0 8.02002 3.45569 8.02002 7.71741C8.02002 11.9785 11.1455 15.4335 14.9997 15.4335C18.854 15.4335 21.9795 11.9785 21.9795 7.71741Z" fill="white"/>
<path d="M29.2504 23.5332C29.3858 22.6758 30.0331 21.7524 29.9987 20.4512C29.9494 18.623 28.7486 16.9088 27.4368 15.5723C25.7719 13.8768 22.8812 14.4346 20.7161 15.6524C19.279 16.4604 17.3722 21.1271 14.9997 21.1085C12.6272 21.1271 10.7213 16.4611 9.28337 15.6524C7.1183 14.4353 4.22841 13.8768 2.56352 15.5716C1.25085 16.9081 0.0501257 18.6223 0.00159556 20.4512C-0.0336279 21.7524 0.523686 22.6898 0.749116 23.5332C3.01046 31.988 27.8626 32.3216 29.2504 23.5332Z" fill="white"/>
</svg>
