<svg width="30" height="30" viewBox="0 0 30 30" fill="none" xmlns="http://www.w3.org/2000/svg">
<path d="M15 0C10.9505 0.0830039 7.09747 1.85333 4.28595 4.92277C1.47444 7.9922 -0.0660964 12.1102 0.00217618 16.3737V23.6842C0.00217618 24.9334 0.354019 26.1544 1.01321 27.1931C1.6724 28.2317 2.60934 29.0412 3.70554 29.5192C4.80174 29.9973 6.00796 30.1223 7.17168 29.8786C8.33539 29.6349 9.40434 29.0334 10.2433 28.1501C11.0823 27.2669 11.6537 26.1415 11.8852 24.9164C12.1166 23.6912 11.9978 22.4213 11.5438 21.2673C11.0897 20.1132 10.3208 19.1268 9.33424 18.4328C8.34769 17.7388 7.18782 17.3684 6.00131 17.3684C4.94402 17.3731 3.9076 17.6786 3.00174 18.2526V16.3737C2.93331 12.9476 4.15778 9.63277 6.4068 7.15552C8.65583 4.67827 11.746 3.24072 15 3.15789C18.254 3.24072 21.3442 4.67827 23.5932 7.15552C25.8422 9.63277 27.0667 12.9476 26.9983 16.3737V18.2526C26.0924 17.6786 25.056 17.3731 23.9987 17.3684C22.8122 17.3684 21.6523 17.7388 20.6658 18.4328C19.6792 19.1268 18.9103 20.1132 18.4562 21.2673C18.0022 22.4213 17.8834 23.6912 18.1148 24.9164C18.3463 26.1415 18.9177 27.2669 19.7567 28.1501C20.5957 29.0334 21.6646 29.6349 22.8283 29.8786C23.992 30.1223 25.1983 29.9973 26.2945 29.5192C27.3907 29.0412 28.3276 28.2317 28.9868 27.1931C29.646 26.1544 29.9978 24.9334 29.9978 23.6842V16.3737C30.0661 12.1102 28.5256 7.9922 25.714 4.92277C22.9025 1.85333 19.0495 0.0830039 15 0Z" fill="#B9B9B9"/>
</svg>
