<svg width="74" height="83" viewBox="0 0 74 83" fill="none" xmlns="http://www.w3.org/2000/svg">
<path fill-rule="evenodd" clip-rule="evenodd" d="M48.7093 12C35.615 12 25 22.615 25 35.7093C25 37.5354 25.2064 39.3133 25.5973 41.0208C20.3456 45.3697 17 51.9395 17 59.2907C17 72.385 27.615 83 40.7093 83H42.2907C55.385 83 66 72.385 66 59.2907C66 57.4646 65.7936 55.6867 65.4027 53.9792C70.6544 49.6303 74 43.0605 74 35.7093C74 22.615 63.385 12 50.2907 12H48.7093Z" fill="#8D8D8D" fill-opacity="0.32"/>
<path fill-rule="evenodd" clip-rule="evenodd" d="M4 24.7093C4 11.0627 15.0627 0 28.7093 0H29.2907C37.519 0 44.8079 4.02194 49.2988 10.2072C61.0393 12.1222 70 22.3112 70 34.593C70 40.8868 67.6469 46.6309 63.7726 50.9938C63.9225 52.0946 64 53.2185 64 54.3605C64 68.007 52.9373 79.0698 39.2907 79.0698H38.7093C28.3167 79.0698 19.4227 72.6538 15.7721 63.5668C6.54286 59.9848 0 51.0181 0 40.5233C0 35.4861 1.50723 30.8011 4.09529 26.8944C4.03221 26.1745 4 25.4456 4 24.7093Z" fill="white"/>
<rect x="29" y="9.88373" width="10" height="9.88372" fill="#E95050"/>
<rect x="9" y="46.4535" width="10" height="9.88372" fill="#E95050"/>
<path d="M52.5 26.686H62.5V36.5698H52.5V26.686Z" fill="#E95050"/>
<rect x="10" y="22.7325" width="10" height="9.88372" fill="#E95050"/>
<path d="M34 45.0467V31H44.6667V35H36.6667V49.6667C36.6664 50.8407 36.2788 51.9818 35.5639 52.913C34.8491 53.8443 33.8469 54.5136 32.7128 54.8173C31.5788 55.121 30.3762 55.042 29.2917 54.5925C28.2071 54.1431 27.3011 53.3484 26.7142 52.3316C26.1274 51.3148 25.8924 50.1328 26.0457 48.9689C26.199 47.8049 26.7321 46.7241 27.5623 45.894C28.3925 45.0639 29.4734 44.5309 30.6373 44.3777C31.8013 44.2245 32.9833 44.4597 34 45.0467V45.0467Z" fill="#E95050"/>
</svg>
