<svg width="32" height="31" viewBox="0 0 32 31" fill="none" xmlns="http://www.w3.org/2000/svg">
<path d="M29.6334 8.97329C29.3549 8.62851 28.9508 8.40847 28.5101 8.36159C28.0694 8.3147 27.6281 8.44481 27.2834 8.72329C26.9386 9.00176 26.7185 9.4058 26.6717 9.84651C26.6248 10.2872 26.7549 10.7285 27.0334 11.0733C27.8754 12.2181 28.3296 13.6021 28.3296 15.0233C28.3296 16.4445 27.8754 17.8284 27.0334 18.9733C26.8347 19.2182 26.7095 19.5145 26.6725 19.8277C26.6355 20.1409 26.6881 20.4582 26.8243 20.7427C26.9604 21.0272 27.1745 21.2672 27.4416 21.4349C27.7087 21.6026 28.018 21.691 28.3334 21.69C28.5824 21.6908 28.8284 21.6358 29.0533 21.5291C29.2783 21.4224 29.4765 21.2667 29.6334 21.0733C30.9554 19.3334 31.6711 17.2084 31.6711 15.0233C31.6711 12.8381 30.9554 10.7132 29.6334 8.97329Z" fill="#B9B9B9"/>
<path d="M22.45 0.223291C22.1966 0.0770104 21.9092 0 21.6167 0C21.3241 0 21.0367 0.0770104 20.7833 0.223291L10 7.63996H1.66667C1.22464 7.63996 0.800716 7.81555 0.488155 8.12811C0.175595 8.44067 0 8.8646 0 9.30662V20.74C0 21.182 0.175595 21.6059 0.488155 21.9185C0.800716 22.231 1.22464 22.4066 1.66667 22.4066H10L20.6833 29.74C20.976 29.9293 21.3181 30.0279 21.6667 30.0233C22.1087 30.0233 22.5326 29.8477 22.8452 29.5351C23.1577 29.2226 23.3333 28.7987 23.3333 28.3566V1.68996C23.3325 1.38845 23.2499 1.09281 23.0944 0.834527C22.9388 0.576246 22.7161 0.364999 22.45 0.223291Z" fill="#B9B9B9"/>
</svg>
